<?xml version="1.0" encoding="utf-8"?>
<!-- Generator: Adobe Illustrator 24.1.3, SVG Export Plug-In . SVG Version: 6.00 Build 0)  -->
<svg version="1.1" id="Ebene_1" xmlns="http://www.w3.org/2000/svg" xmlns:xlink="http://www.w3.org/1999/xlink" x="0px" y="0px"
	 viewBox="0 0 105.49 80.7" style="enable-background:new 0 0 105.49 80.7;" xml:space="preserve">
<style type="text/css">
	.st0{fill:#FFFFFF;}
	.st1{fill:#C50E1F;}
</style>
<path id="XMLID_145_" class="st1" d="M75.81,80.67c6.28,0,10.79-1.86,14.29-4.21c3.27-2.19,5.8-4.78,7.74-8.12
	c2.51-4.32,2.78-8.33,2.99-10.66c0-0.02,4.67-48.4,4.67-48.4l-22.8,0C82.69,9.28,75.8,80.67,75.81,80.67z"/>
<path id="XMLID_144_" class="st1" d="M53.86,22.71l-3.45,35.8c-0.58,7.83,2.36,11.85,4.18,13.97c3.34,3.87,9.47,6.91,16.56,8.18
	c0.2-2.08,6.6-68.5,6.6-68.51c0.21-3.25-0.73-6.09-2.9-8.57c-2.53-2.89-6.28-3.55-7.83-3.55L10.46,0.03C6.28,0.03,0,4.08,0,11.09
	c0,8.65,7.69,11.62,10.34,11.62C11.69,22.71,53.86,22.71,53.86,22.71z"/>
<path id="XMLID_143_" class="st1" d="M44.53,71.38l4.24-44.02l-22.84-0.05c0,0-3.72,38.32-4.26,44.02L44.53,71.38z"/>
<g id="XMLID_127_">
	<path id="XMLID_140_" class="st0" d="M97.1,49.18c-0.11,1.14-0.3,2-0.62,2.88l-11.54-0.01l0.17-1.74l3.69,0
		c0.47,0,1.11,0.05,1.51,0.15l0-0.03c-0.96-0.42-1.49-1.38-1.38-2.57c0.18-1.92,1.64-2.97,4.05-2.97
		C95.76,44.89,97.36,46.5,97.1,49.18z M90.33,48.31c-0.13,1.3,1.3,2,2.66,2l2.48,0c0.15-0.36,0.23-0.76,0.28-1.27
		c0.13-1.38-0.61-2.32-2.77-2.33C91.37,46.72,90.43,47.23,90.33,48.31z"/>
	<path id="XMLID_137_" class="st0" d="M94.34,36.58l-0.49,5.13c1.81,0.05,2.69-0.73,2.85-2.39c0.08-0.78-0.01-1.59-0.24-2.32
		l1.36-0.23c0.24,0.84,0.34,1.85,0.24,2.86c-0.24,2.49-1.66,3.87-4.48,3.86c-2.4,0-4.08-1.38-3.86-3.72
		c0.22-2.31,1.83-3.27,3.65-3.26C93.62,36.52,94.01,36.53,94.34,36.58z M91,39.88c-0.09,0.97,0.56,1.66,1.66,1.81l0.33-3.43
		C91.86,38.22,91.1,38.85,91,39.88z"/>
	<path id="XMLID_135_" class="st0" d="M92.32,30.45c-0.46,1.61,0.58,2.39,2.97,2.39l3.25,0l-0.17,1.74l-8-0.01l0.16-1.66
		c0.45,0,1.15,0.05,1.75,0.16l0-0.03c-1.04-0.36-1.96-1.17-1.66-2.68L92.32,30.45z"/>
	<path id="XMLID_133_" class="st0" d="M98.93,28.88l-11.75-0.01l0.17-1.74l11.75,0.01L98.93,28.88z"/>
	<path id="XMLID_130_" class="st0" d="M89.99,23.88C89.93,24.5,89.42,25,88.81,25c-0.6,0-1.03-0.5-0.97-1.12
		c0.06-0.6,0.59-1.1,1.19-1.1C89.62,22.77,90.05,23.28,89.99,23.88z M99.32,24.76l-8-0.01l0.17-1.74l8,0.01L99.32,24.76z"/>
	<path id="XMLID_128_" class="st0" d="M100.21,15.61l-5.13,0c-1,0-1.62,0.28-1.71,1.2c-0.12,1.22,1.07,2.11,2.68,2.11l3.85,0
		l-0.17,1.74l-8-0.01L91.88,19c0.43,0,1.12,0.03,1.56,0.12l0-0.02c-0.98-0.47-1.6-1.45-1.47-2.81c0.18-1.84,1.39-2.4,2.79-2.4l5.6,0
		L100.21,15.61z"/>
</g>
</svg>
